<svg width="80" height="80" viewBox="0 0 80 80" fill="none" xmlns="http://www.w3.org/2000/svg">
<path d="M46.2261 55.7973L58.1784 36.5785L59.2913 34.7513H59.1821C60.6585 31.7985 61.4301 28.5508 61.4301 25.2472C61.4301 13.4711 51.8495 3.89038 40.0733 3.89038C28.2964 3.89038 18.7149 13.4711 18.7149 25.2472C18.7149 28.5508 19.4874 31.7977 20.963 34.7513H20.8761L33.4813 55.8451C24.5368 57.1103 18.6543 60.7877 18.6543 65.2496C18.6543 70.7781 28.0493 75.1077 40.0422 75.1077C52.0352 75.1077 61.4301 70.7773 61.4301 65.2496C61.4301 60.7662 55.2734 57.0058 46.2261 55.7973ZM24.0186 35.311C22.1134 32.2785 21.1065 28.7987 21.1065 25.2472C21.1065 14.7896 29.6149 6.28196 40.0733 6.28196C50.5309 6.28196 59.0386 14.7896 59.0386 25.2472C59.0386 28.7995 58.0317 32.2793 56.1264 35.311L55 37.1429H55.0119L39.7521 61.6766L25.0917 37.1429H25.1698L24.0186 35.311ZM40.0422 72.7161C28.8472 72.7161 21.0459 68.7804 21.0459 65.2496C21.0459 62.0449 26.9212 59.0251 34.823 58.09L39.7122 66.2716L44.8294 58.043C52.8579 58.9127 59.0386 62.009 59.0386 65.2496C59.0386 68.7812 51.2364 72.7161 40.0422 72.7161Z" fill="white"/>
<path d="M40.4305 33.0126C44.7122 33.0126 48.1959 29.5289 48.1959 25.2472C48.1959 20.9654 44.7122 17.4817 40.4305 17.4817C36.1487 17.4817 32.665 20.9654 32.665 25.2472C32.665 29.5289 36.1487 33.0126 40.4305 33.0126ZM40.4305 19.8733C43.3936 19.8733 45.8044 22.284 45.8044 25.2472C45.8044 28.2103 43.3936 30.621 40.4305 30.621C37.4673 30.621 35.0566 28.2103 35.0566 25.2472C35.0566 22.284 37.4673 19.8733 40.4305 19.8733Z" fill="white"/>
</svg>
