<svg width="80" height="80" viewBox="0 0 80 80" fill="none" xmlns="http://www.w3.org/2000/svg">
<path d="M70.3999 69.0001H66.7999V19.8001C66.7999 19.4818 66.6735 19.1766 66.4484 18.9516C66.2234 18.7265 65.9182 18.6001 65.5999 18.6001H54.3999C54.0816 18.6001 53.7764 18.7265 53.5514 18.9516C53.3263 19.1766 53.1999 19.4818 53.1999 19.8001V69.0001H46.7999V38.2001C46.7999 37.8818 46.6735 37.5766 46.4484 37.3516C46.2234 37.1265 45.9182 37.0001 45.5999 37.0001H34.3999C34.0816 37.0001 33.7764 37.1265 33.5514 37.3516C33.3263 37.5766 33.1999 37.8818 33.1999 38.2001V69.0001H26.7999V55.8001C26.7999 55.4818 26.6735 55.1766 26.4484 54.9516C26.2234 54.7265 25.9182 54.6001 25.5999 54.6001H14.3999C14.0816 54.6001 13.7764 54.7265 13.5514 54.9516C13.3263 55.1766 13.1999 55.4818 13.1999 55.8001V69.0001H9.5999C9.28164 69.0001 8.97642 69.1265 8.75137 69.3516C8.52633 69.5766 8.3999 69.8818 8.3999 70.2001C8.3999 70.5184 8.52633 70.8236 8.75137 71.0486C8.97642 71.2737 9.28164 71.4001 9.5999 71.4001H70.3999C70.7182 71.4001 71.0234 71.2737 71.2484 71.0486C71.4735 70.8236 71.5999 70.5184 71.5999 70.2001C71.5999 69.8818 71.4735 69.5766 71.2484 69.3516C71.0234 69.1265 70.7182 69.0001 70.3999 69.0001ZM55.5999 21.0001H64.3999V69.0001H55.5999V21.0001ZM35.5999 39.4001H44.3999V69.0001H35.5999V39.4001ZM15.5999 57.0001H24.3999V69.0001H15.5999V57.0001Z" fill="white"/>
<path d="M10.4001 46.6C10.7183 46.5997 11.0233 46.4731 11.2481 46.248L44.4001 13.096V18.2C44.4001 18.5183 44.5265 18.8235 44.7516 19.0485C44.9766 19.2736 45.2819 19.4 45.6001 19.4C45.9184 19.4 46.2236 19.2736 46.4486 19.0485C46.6737 18.8235 46.8001 18.5183 46.8001 18.2V10.2C46.7989 10.0491 46.769 9.89977 46.7121 9.76C46.6518 9.61259 46.5627 9.47867 46.4501 9.36604C46.3374 9.25341 46.2035 9.16434 46.0561 9.104C45.9125 9.03956 45.7575 9.00421 45.6001 9H37.6001C37.2819 9 36.9766 9.12643 36.7516 9.35147C36.5265 9.57652 36.4001 9.88174 36.4001 10.2C36.4001 10.5183 36.5265 10.8235 36.7516 11.0485C36.9766 11.2736 37.2819 11.4 37.6001 11.4H42.7041L9.55212 44.552C9.38451 44.7198 9.27039 44.9335 9.22417 45.1662C9.17796 45.3988 9.20172 45.6399 9.29246 45.8591C9.3832 46.0782 9.53684 46.2656 9.73399 46.3974C9.93113 46.5293 10.1629 46.5998 10.4001 46.6Z" fill="white"/>
</svg>
