<svg width="29" height="29" viewBox="0 0 29 29" fill="none" xmlns="http://www.w3.org/2000/svg">
<g clip-path="url(#clip0_18_201)">
<path d="M22.962 4.40367L21.5086 5.83017C21.5086 5.83017 21.0222 5.72051 20.6842 5.55603L18.4069 4.44803C18.1303 4.31345 17.7894 4.24866 17.442 4.24866C16.942 4.24866 16.4272 4.38323 16.0663 4.63843L12.5439 7.10863C11.9319 7.54177 11.7963 8.3886 12.2429 8.99119L12.4517 9.2733C12.7383 9.65909 13.2068 9.86992 13.6754 9.86992C13.939 9.86992 14.2022 9.80363 14.4335 9.66407L16.1047 8.59744C16.4003 8.4195 16.7756 8.33178 17.1549 8.33178C17.6 8.33178 18.05 8.45289 18.3795 8.68965L20.8054 10.9121C21.4144 11.3503 22.3614 12.1273 22.9117 12.6372L25.1148 14.6847L29 10.1829L22.962 4.40367Z" fill="#86A876"/>
<path d="M24.4364 16.336L20.7495 12.9093C20.429 12.6491 19.7148 12.1023 19.7148 12.1023L17.4041 9.98598C17.3552 9.96754 17.2655 9.94611 17.1549 9.94611C17.0397 9.94611 16.9635 9.96954 16.944 9.97801L15.2683 11.0461C14.7928 11.3332 14.2421 11.4843 13.6763 11.4843C12.679 11.4843 11.7365 11.0172 11.1553 10.2337L10.947 9.95309C10.4695 9.30912 10.2761 8.52011 10.4027 7.7306C10.5288 6.94159 10.9589 6.25177 11.6178 5.78624L11.9971 5.52057C11.4499 5.45379 10.8428 5.5121 10.3987 5.702C10.3987 5.702 9.65454 6.02897 9.41579 6.13015C8.86254 6.36491 8.08698 6.36142 8.08698 6.36142L6.26673 4.66577L0 10.8906L2.35656 13.2607L2.89188 12.6999C3.45011 12.1143 4.23613 11.7778 5.04807 11.7778C5.81814 11.7778 6.54834 12.0699 7.10409 12.5997L7.35779 12.8415C7.68426 13.153 7.925 13.5198 8.07901 13.9156C8.56597 14.0407 9.01456 14.2879 9.38738 14.6433L9.63959 14.8845C10.2148 15.4318 10.5427 16.1715 10.5622 16.968C10.7366 17.0756 10.9021 17.2027 11.0531 17.3473L11.3083 17.5905C11.6657 17.9314 11.9199 18.3401 12.0694 18.7782C12.521 18.9098 12.9372 19.1476 13.2841 19.478L13.5423 19.7233C14.58 20.7131 14.745 22.2787 14.0173 23.4515L14.2107 23.6319C14.7599 24.1428 15.6272 24.1114 16.1381 23.5621L16.3768 23.3045C16.8768 22.7662 16.8518 21.9268 16.3335 21.4139L18.1014 23.0538C18.6517 23.5636 19.5189 23.5317 20.0298 22.9815L20.2686 22.7248C20.7759 22.1785 20.746 21.3187 20.2057 20.8068L20.6603 21.2295C21.2101 21.7399 22.0768 21.7075 22.5872 21.1582L22.8265 20.901C23.3369 20.3508 23.3045 19.4835 22.7552 18.9726L22.3714 18.6168C22.9232 19.0982 23.7665 19.0614 24.2674 18.5216L24.5077 18.2639C25.0181 17.7131 24.9867 16.8458 24.4364 16.336Z" fill="#86A876"/>
<path d="M12.4273 20.8915L12.1721 20.6488C11.909 20.3981 11.57 20.2735 11.2311 20.2735C10.8712 20.2735 10.5114 20.4145 10.2442 20.6946L10.2397 20.6872C10.7566 20.1444 10.7362 19.2766 10.1934 18.7593L9.93867 18.5165C9.6765 18.2673 9.34105 18.1437 9.00412 18.1437C8.66369 18.1437 8.32426 18.2698 8.06109 18.5185L8.57198 17.9832C9.08985 17.4404 9.06991 16.5721 8.52612 16.0548L8.27193 15.812C8.00975 15.5618 7.67182 15.4382 7.33438 15.4382C6.98399 15.4382 6.63459 15.5713 6.36943 15.835C6.79558 15.2907 6.75322 14.4982 6.24283 14.0112L5.98913 13.769C5.72596 13.5183 5.38603 13.3937 5.0476 13.3937C4.68674 13.3932 4.32737 13.5347 4.06021 13.8148L1.4988 16.5004C0.981429 17.0427 1.00186 17.9109 1.54615 18.4278L1.79935 18.67C2.06102 18.9192 2.39696 19.0414 2.7324 19.0414C3.04193 19.0414 3.35095 18.9372 3.60216 18.7318L2.92729 19.4386C2.41042 19.9819 2.43086 20.8492 2.97314 21.367L3.22884 21.6098C3.49201 21.8605 3.83144 21.9851 4.16937 21.9851C4.53023 21.9851 4.8896 21.844 5.15675 21.5639L5.68359 21.0111C5.21457 21.5559 5.24597 22.3838 5.77181 22.8847L6.02751 23.1275C6.29018 23.3777 6.62961 23.5023 6.96854 23.5023C7.3289 23.5023 7.68877 23.3612 7.95543 23.0811L8.80225 22.2049C8.28439 22.7482 8.30432 23.6154 8.84811 24.1333L9.1033 24.376C9.36548 24.6267 9.70441 24.7513 10.0433 24.7513C10.4037 24.7513 10.7636 24.6103 11.0302 24.3302L12.4732 22.8179C12.991 22.2767 12.9696 21.4094 12.4273 20.8915Z" fill="#86A876"/>
</g>
<defs>
<clipPath id="clip0_18_201">
<rect width="29" height="29" fill="white"/>
</clipPath>
</defs>
</svg>
