<svg width="70" height="70" viewBox="0 0 70 70" fill="none" xmlns="http://www.w3.org/2000/svg">
<path d="M57.6953 62.8152H59.7461V64.866H57.6953V62.8152Z" fill="#86A876"/>
<path d="M67.9492 62.8148V42.307H60.7715V28.9767C60.7715 27.2806 59.3916 25.9006 57.6953 25.9006H50.5176V13.5665L55.1756 12.3769V5.13354L5.21992 17.8913V25.1347L9.87779 23.9451V38.2053H2.05078V62.8146H0V64.8654H55.6445V62.8146H42.3144V48.4592H60.7715V44.3576H65.8984V62.8146H61.7969V64.8654H69.9999V62.8146H67.9492V62.8148ZM28.9506 16.9578L7.2707 22.4945V19.4841L53.1248 7.77372V10.7841L30.9374 16.4504L31.4449 18.4374L48.4668 14.0903V25.9006H38.2129V42.3068H23.8574V38.2053H11.9287V23.4216L29.4581 18.9449L28.9506 16.9578ZM42.3144 46.4085H19.7559V44.3577H42.3144V46.4085ZM4.10156 40.2562H21.8066V42.307H17.7051V48.4593H19.7559V62.8148H17.7051V50.5101H6.15221V62.8148H4.10156V40.2562ZM15.6543 56.6624V58.7132H8.20299V56.6624H15.6543ZM8.20299 54.6117V52.5609H15.6543V54.6117H8.20299ZM15.6543 60.764V62.8148H8.20299V60.764H15.6543ZM35.1366 62.8148H26.9335V53.5863H35.1366V62.8148ZM40.2637 62.8148H37.1874V51.5355H24.8827V62.8148H21.8065V48.4593H40.2635V62.8148H40.2637ZM58.7207 46.4085H44.3652V42.307H40.2637V27.9515H57.6953C58.2606 27.9515 58.7207 28.4114 58.7207 28.9769V46.4085Z" fill="#86A876"/>
<path d="M43.3398 39.2312H55.6445V31.0281H43.3398V39.2312ZM45.3906 33.0789H53.5938V37.1804H45.3906V33.0789Z" fill="#86A876"/>
<path d="M35.1371 25.9004H15.0049V35.1289H35.1373V25.9004H35.1371ZM17.0557 27.9512H24.0457V33.0781H17.0557V27.9512ZM33.0863 33.078H26.0963V27.951H33.0863V33.078Z" fill="#86A876"/>
<path d="M62.8223 51.5359H45.3906V59.739H62.8223V51.5359ZM47.4414 53.5867H53.0811V57.6882H47.4414V53.5867ZM60.7715 57.6882H55.1318V53.5867H60.7715V57.6882Z" fill="#86A876"/>
<path d="M44.3654 17.2871H46.4161V19.3379H44.3654V17.2871Z" fill="#86A876"/>
<path d="M44.3654 21.3887H46.4161V23.4395H44.3654V21.3887Z" fill="#86A876"/>
</svg>
