<svg width="29" height="29" viewBox="0 0 29 29" fill="none" xmlns="http://www.w3.org/2000/svg">
<path d="M24.1667 23.6712V9.66663L16.9167 2.41663H7.24999C5.92083 2.41663 4.84541 3.50413 4.84541 4.83329L4.83333 24.1666C4.83333 25.4958 5.90874 26.5833 7.23791 26.5833H21.75C22.2937 26.5833 22.7771 26.402 23.1879 26.1L17.835 20.747C16.8683 21.3754 15.7325 21.75 14.5 21.75C11.165 21.75 8.45833 19.0433 8.45833 15.7083C8.45833 12.3733 11.165 9.66663 14.5 9.66663C17.835 9.66663 20.5417 12.3733 20.5417 15.7083C20.5417 16.9408 20.1671 18.0766 19.5387 19.0312L24.1667 23.6712ZM10.875 15.7083C10.875 17.7141 12.4942 19.3333 14.5 19.3333C16.5058 19.3333 18.125 17.7141 18.125 15.7083C18.125 13.7025 16.5058 12.0833 14.5 12.0833C12.4942 12.0833 10.875 13.7025 10.875 15.7083Z" fill="#86A876"/>
</svg>
