<svg width="29" height="29" viewBox="0 0 29 29" fill="none" xmlns="http://www.w3.org/2000/svg">
<path d="M13.2917 18.5576H13.23C12.9259 18.5576 12.6343 18.4368 12.4192 18.2217C12.2042 18.0067 12.0833 17.715 12.0833 17.4109C12.0833 17.0904 11.956 16.7831 11.7294 16.5564C11.5028 16.3298 11.1955 16.2025 10.875 16.2025C10.5545 16.2025 10.2472 16.3298 10.0206 16.5564C9.79398 16.7831 9.66667 17.0904 9.66667 17.4109C9.66667 18.3559 10.0421 19.2623 10.7104 19.9306C11.3786 20.5988 12.285 20.9742 13.23 20.9742H13.2917V22.1826C13.2917 22.503 13.419 22.8104 13.6456 23.037C13.8722 23.2636 14.1795 23.3909 14.5 23.3909C14.8205 23.3909 15.1278 23.2636 15.3544 23.037C15.581 22.8104 15.7083 22.503 15.7083 22.1826V20.9742C16.6697 20.9742 17.5918 20.5923 18.2716 19.9125C18.9514 19.2327 19.3333 18.3107 19.3333 17.3492C19.3333 16.3878 18.9514 15.4658 18.2716 14.786C17.5918 14.1062 16.6697 13.7242 15.7083 13.7242V11.3076H15.7349C16.3874 11.3076 16.9167 11.8368 16.9167 12.4893C16.9167 12.8098 17.044 13.1171 17.2706 13.3437C17.4972 13.5704 17.8045 13.6977 18.125 13.6977C18.4455 13.6977 18.7528 13.5704 18.9794 13.3437C19.206 13.1171 19.3333 12.8098 19.3333 12.4893C19.3333 11.535 18.9542 10.6197 18.2794 9.94486C17.6046 9.27003 16.6893 8.89091 15.7349 8.89091H15.7083V7.68258C15.7083 7.36211 15.581 7.05476 15.3544 6.82816C15.1278 6.60155 14.8205 6.47424 14.5 6.47424C14.1795 6.47424 13.8722 6.60155 13.6456 6.82816C13.419 7.05476 13.2917 7.36211 13.2917 7.68258V8.89091C12.3303 8.89091 11.4082 9.27283 10.7284 9.95265C10.0486 10.6325 9.66667 11.5545 9.66667 12.5159C9.66667 13.4773 10.0486 14.3994 10.7284 15.0792C11.4082 15.759 12.3303 16.1409 13.2917 16.1409V18.5576ZM15.7083 18.5576V16.1409C16.0288 16.1409 16.3362 16.2682 16.5628 16.4948C16.7894 16.7214 16.9167 17.0288 16.9167 17.3492C16.9167 17.6697 16.7894 17.9771 16.5628 18.2037C16.3362 18.4303 16.0288 18.5576 15.7083 18.5576ZM13.2917 11.3076V13.7242C12.9712 13.7242 12.6639 13.5969 12.4373 13.3703C12.2106 13.1437 12.0833 12.8364 12.0833 12.5159C12.0833 12.1954 12.2106 11.8881 12.4373 11.6615C12.6639 11.4349 12.9712 11.3076 13.2917 11.3076ZM14.5 27.0159C7.82638 27.0159 2.41667 21.6062 2.41667 14.9326C2.41667 8.25895 7.82638 2.84924 14.5 2.84924C21.1736 2.84924 26.5833 8.25895 26.5833 14.9326C26.5833 21.6062 21.1736 27.0159 14.5 27.0159Z" fill="#86A876"/>
</svg>
