<svg width="149" height="56" viewBox="0 0 149 56" fill="none" xmlns="http://www.w3.org/2000/svg">
<g clip-path="url(#clip0_18_335)">
<path d="M0.80127 0.800781V48.5425H35.0993V44.0239H5.4801V5.31938H45.4985V33.9772H50.1774V0.800781H0.80127Z" fill="white"/>
<path d="M56.3864 37.6064H39.025V54.9758H56.3864V37.6064Z" fill="#86A876"/>
<path d="M30.3164 13.9883L25.4453 27.8805L20.6382 13.9883H13.1954V35.3555H19.116V29.8755L18.7315 22.5368L23.4584 35.3555H27.4562L32.2552 22.4005L31.8626 29.8915V35.3555H37.7753V13.9883H30.3164Z" fill="white"/>
<path d="M64.9873 12.1631L67.623 19.1666L70.2524 12.1631H72.3045V21.3003H70.7231V18.288L70.88 14.2592L68.1815 21.3003H67.0456L64.3534 14.2654L64.5103 18.288V21.3003H62.9289V12.1631H64.9873ZM79.4147 19.1729H75.8753L75.1348 21.3003H73.4843L76.9359 12.1631H78.3604L81.8182 21.3003H80.1615L79.4147 19.1729ZM76.3209 17.8927H78.9691L77.645 14.1023L76.3209 17.8927ZM87.6356 18.947C87.6356 18.5453 87.4934 18.2357 87.2089 18.0182C86.9286 17.8006 86.4203 17.581 85.684 17.3593C84.9476 17.1375 84.3619 16.8907 83.9268 16.6188C83.0943 16.0958 82.678 15.4139 82.678 14.5729C82.678 13.8366 82.9771 13.23 83.5754 12.753C84.1778 12.2761 84.9581 12.0376 85.9161 12.0376C86.5521 12.0376 87.119 12.1548 87.6168 12.389C88.1147 12.6233 88.5058 12.958 88.7903 13.3931C89.0748 13.8241 89.2171 14.3031 89.2171 14.8302H87.6356C87.6356 14.3533 87.485 13.9809 87.1838 13.7132C86.8868 13.4412 86.46 13.3053 85.9036 13.3053C85.3848 13.3053 84.9811 13.4161 84.6924 13.6379C84.4079 13.8596 84.2657 14.1692 84.2657 14.5667C84.2657 14.9013 84.4205 15.1817 84.7301 15.4076C85.0397 15.6293 85.5501 15.8469 86.2613 16.0602C86.9725 16.2694 87.5436 16.51 87.9745 16.7819C88.4054 17.0497 88.7213 17.3593 88.9221 17.7107C89.1229 18.0579 89.2234 18.4658 89.2234 18.9344C89.2234 19.6959 88.9305 20.3025 88.3448 20.7543C87.7632 21.202 86.9725 21.4258 85.9726 21.4258C85.3116 21.4258 84.7029 21.3045 84.1465 21.0618C83.5942 20.815 83.1633 20.4761 82.8537 20.0452C82.5483 19.6143 82.3956 19.1122 82.3956 18.5391H83.9833C83.9833 19.0578 84.1548 19.4595 84.4979 19.744C84.8409 20.0285 85.3325 20.1707 85.9726 20.1707C86.5249 20.1707 86.9391 20.0598 87.2152 19.8381C87.4955 19.6122 87.6356 19.3151 87.6356 18.947ZM97.2184 13.4433H94.3693V21.3003H92.7941V13.4433H89.9701V12.1631H97.2184V13.4433ZM103.764 17.2212H100.011V20.0326H104.398V21.3003H98.4233V12.1631H104.354V13.4433H100.011V15.9661H103.764V17.2212ZM109.048 17.7797H107.278V21.3003H105.69V12.1631H108.903C109.958 12.1631 110.771 12.3995 111.345 12.8723C111.918 13.345 112.204 14.0291 112.204 14.9244C112.204 15.5352 112.056 16.0477 111.759 16.4619C111.466 16.8719 111.056 17.1877 110.529 17.4095L112.581 21.2187V21.3003H110.88L109.048 17.7797ZM107.278 16.5058H108.91C109.445 16.5058 109.864 16.3719 110.165 16.1042C110.466 15.8322 110.617 15.462 110.617 14.9934C110.617 14.5039 110.476 14.1253 110.196 13.8575C109.92 13.5898 109.506 13.4517 108.954 13.4433H107.278V16.5058ZM115.298 17.9052V21.3003H113.71V12.1631H117.206C118.227 12.1631 119.036 12.4288 119.635 12.9601C120.237 13.4914 120.538 14.1943 120.538 15.0687C120.538 15.964 120.243 16.6606 119.653 17.1584C119.068 17.6563 118.246 17.9052 117.187 17.9052H115.298ZM115.298 16.6313H117.206C117.771 16.6313 118.202 16.4995 118.499 16.2359C118.796 15.9682 118.944 15.5833 118.944 15.0812C118.944 14.5876 118.794 14.1943 118.492 13.9014C118.191 13.6044 117.777 13.4517 117.25 13.4433H115.298V16.6313ZM123.607 21.3003H122.026V12.1631H123.607V21.3003ZM130.899 17.2212H127.146V20.0326H131.533V21.3003H125.559V12.1631H131.489V13.4433H127.146V15.9661H130.899V17.2212ZM139.798 18.3257C139.706 19.3005 139.346 20.0619 138.718 20.61C138.091 21.1539 137.256 21.4258 136.214 21.4258C135.487 21.4258 134.844 21.2543 134.288 20.9112C133.736 20.564 133.309 20.0724 133.008 19.4365C132.706 18.8005 132.55 18.0621 132.537 17.2212V16.3677C132.537 15.5059 132.69 14.7466 132.995 14.0897C133.301 13.4329 133.738 12.9267 134.307 12.571C134.88 12.2154 135.541 12.0376 136.29 12.0376C137.298 12.0376 138.11 12.3116 138.725 12.8597C139.34 13.4078 139.697 14.1818 139.798 15.1817H138.216C138.141 14.5248 137.949 14.0521 137.639 13.7634C137.334 13.4705 136.884 13.3241 136.29 13.3241C135.599 13.3241 135.068 13.5772 134.696 14.0834C134.328 14.5855 134.139 15.3239 134.131 16.2987V17.1082C134.131 18.0956 134.307 18.8487 134.658 19.3674C135.014 19.8862 135.533 20.1456 136.214 20.1456C136.838 20.1456 137.306 20.0054 137.62 19.7251C137.934 19.4448 138.133 18.9783 138.216 18.3257H139.798ZM146.563 17.2212H142.81V20.0326H147.197V21.3003H141.222V12.1631H147.153V13.4433H142.81V15.9661H146.563V17.2212ZM66.2863 33.7797H64.5166V37.3003H62.9289V28.1631H66.142C67.1963 28.1631 68.01 28.3995 68.5831 28.8723C69.1563 29.345 69.4429 30.0291 69.4429 30.9244C69.4429 31.5352 69.2944 32.0477 68.9973 32.4619C68.7045 32.8719 68.2945 33.1877 67.7673 33.4095L69.8194 37.2187V37.3003H68.1188L66.2863 33.7797ZM64.5166 32.5058H66.1482C66.6838 32.5058 67.1021 32.3719 67.4033 32.1042C67.7046 31.8322 67.8552 31.462 67.8552 30.9934C67.8552 30.5039 67.715 30.1253 67.4347 29.8575C67.1586 29.5898 66.7444 29.4517 66.1922 29.4433H64.5166V32.5058ZM76.2895 33.2212H72.5367V36.0326H76.9233V37.3003H70.949V28.1631H76.8794V29.4433H72.5367V31.9661H76.2895V33.2212ZM83.3306 35.1729H79.7912L79.0507 37.3003H77.4003L80.8518 28.1631H82.2763L85.7342 37.3003H84.0774L83.3306 35.1729ZM80.2368 33.8927H82.8851L81.5609 30.1023L80.2368 33.8927ZM88.3636 36.0326H92.5117V37.3003H86.7759V28.1631H88.3636V36.0326ZM99.0383 29.4433H96.1892V37.3003H94.614V29.4433H91.79V28.1631H99.0383V29.4433ZM103.324 32.4932L105.427 28.1631H107.184L104.121 33.9366V37.3003H102.527V33.9366L99.4587 28.1631H101.222L103.324 32.4932Z" fill="white"/>
</g>
<defs>
<clipPath id="clip0_18_335">
<rect width="149" height="56" fill="white"/>
</clipPath>
</defs>
</svg>
