<svg width="29" height="29" viewBox="0 0 29 29" fill="none" xmlns="http://www.w3.org/2000/svg">
<path d="M19.3333 14.5C22.6683 14.5 25.375 11.7933 25.375 8.45829C25.375 5.12329 22.6683 2.41663 19.3333 2.41663C15.9983 2.41663 13.2917 5.12329 13.2917 8.45829C13.2917 11.7933 15.9983 14.5 19.3333 14.5ZM25.9187 21.2666C25.4475 20.7833 24.8554 20.5416 24.1667 20.5416H15.7083L13.195 19.6595L13.5937 18.5237L15.7083 19.3333H19.0917C19.5146 19.3333 19.8529 19.1641 20.1308 18.8862C20.4087 18.6083 20.5417 18.27 20.5417 17.8954C20.5417 17.2429 20.2275 16.7958 19.5992 16.542L10.8146 13.2916H8.45833V24.1666L16.9167 26.5833L26.6196 22.9583C26.6317 22.3179 26.39 21.75 25.9187 21.2666ZM6.04166 13.2916H1.189V26.5833H6.04166V13.2916Z" fill="#86A876"/>
</svg>
