<svg width="29" height="29" viewBox="0 0 29 29" fill="none" xmlns="http://www.w3.org/2000/svg">
<path d="M26.8998 11.8113C26.8725 11.6854 26.8185 11.5667 26.7416 11.4632C26.6648 11.3597 26.5667 11.2738 26.454 11.2113L23.7606 9.71619C23.6114 9.42706 23.4489 9.14502 23.2735 8.871L23.3255 5.78828C23.3276 5.65935 23.3023 5.53143 23.251 5.41309C23.1998 5.29474 23.1239 5.18869 23.0285 5.10202C21.6875 3.8824 20.0989 2.96672 18.3715 2.4176C18.2487 2.37833 18.119 2.3657 17.9909 2.38055C17.8629 2.3954 17.7395 2.43738 17.629 2.50369L14.9875 4.0885C14.6625 4.07303 14.337 4.0728 14.0119 4.08782L11.3682 2.50154C11.2576 2.43519 11.1342 2.39319 11.0061 2.37834C10.878 2.3635 10.7482 2.37615 10.6254 2.41544C8.89866 2.96704 7.31138 3.88495 5.97203 5.10644C5.8766 5.19312 5.80077 5.29916 5.74959 5.41748C5.6984 5.53581 5.67306 5.66369 5.67524 5.79258L5.72712 8.8727C5.55129 9.14644 5.38829 9.42821 5.23865 9.7171L2.54301 11.2135C2.43027 11.2761 2.33219 11.3621 2.25532 11.4656C2.17844 11.5692 2.12455 11.6879 2.09725 11.8139C1.71148 13.585 1.71272 15.4186 2.10087 17.1891C2.12823 17.3151 2.18214 17.4338 2.25901 17.5373C2.33588 17.6407 2.43394 17.7266 2.54663 17.7892L5.24001 19.2843C5.38917 19.5734 5.55172 19.8554 5.72712 20.1295L5.67524 23.2122C5.67307 23.3411 5.69844 23.469 5.74967 23.5874C5.80089 23.7057 5.87677 23.8118 5.97226 23.8984C7.31321 25.1181 8.9017 26.0337 10.6291 26.5829C10.7519 26.6221 10.8817 26.6348 11.0097 26.6199C11.1378 26.6051 11.2612 26.5631 11.3717 26.4968L14.0132 24.912C14.3381 24.9273 14.6644 24.9276 14.9887 24.9126L17.6324 26.4989C17.743 26.5653 17.8665 26.6073 17.9946 26.6222C18.1227 26.637 18.2525 26.6243 18.3753 26.585C20.102 26.0334 21.6892 25.1156 23.0286 23.8941C23.124 23.8075 23.1998 23.7014 23.251 23.5831C23.3022 23.4648 23.3275 23.3369 23.3254 23.208L23.2735 20.1279C23.4493 19.8541 23.6123 19.5724 23.7619 19.2835L26.4576 17.787C26.5703 17.7244 26.6684 17.6385 26.7453 17.535C26.8221 17.4314 26.876 17.3127 26.9033 17.1866C27.2891 15.4155 27.2879 13.582 26.8997 11.8114L26.8998 11.8113ZM14.5004 19.4845C13.5146 19.4845 12.5509 19.1922 11.7312 18.6445C10.9116 18.0968 10.2727 17.3184 9.89545 16.4076C9.51819 15.4968 9.41949 14.4946 9.61181 13.5278C9.80413 12.5609 10.2788 11.6728 10.9759 10.9757C11.673 10.2786 12.5611 9.8039 13.528 9.61157C14.4949 9.41925 15.4971 9.51796 16.4078 9.89521C17.3186 10.2725 18.0971 10.9113 18.6448 11.731C19.1925 12.5507 19.4848 13.5144 19.4848 14.5002C19.4833 15.8217 18.9577 17.0886 18.0232 18.023C17.0888 18.9574 15.8219 19.483 14.5004 19.4845Z" fill="#86A876"/>
</svg>
