<svg width="24" height="24" viewBox="0 0 24 24" fill="none" xmlns="http://www.w3.org/2000/svg">
<path d="M12.703 12.7026V0C5.89889 0.356892 0.35728 5.89846 0.000389099 12.7026H12.703ZM9.8906 10.5933H8.48441V9.18712H9.8906V10.5933ZM5.67203 6.37474H7.07822V7.78093H5.67203V6.37474ZM9.18751 6.08361L10.1817 7.07783L6.37512 10.8844L5.3809 9.89022L9.18751 6.08361Z" fill="#86A876"/>
<path d="M12.7031 14.108H4.29273C4.63537 18.5889 8.22224 22.1758 12.7031 22.5184V14.108H12.7031Z" fill="#86A876"/>
<path d="M14.1093 2.81177C14.1093 2.96279 14.1093 24.1644 14.1093 23.9984C19.5968 23.6339 23.9995 18.9132 23.9995 13.3349C23.9995 7.75607 19.5981 3.17499 14.1093 2.81177ZM18.3278 12.702C19.491 12.702 20.4371 13.6481 20.4371 14.8113C20.4371 15.7267 19.8476 16.4998 19.0309 16.791V18.3267H17.6248V16.791C16.8081 16.4998 16.2186 15.7267 16.2186 14.8113H17.6248C17.6248 15.1992 17.9399 15.5144 18.3278 15.5144C18.7158 15.5144 19.0309 15.1992 19.0309 14.8113C19.0309 14.4233 18.7158 14.1082 18.3278 14.1082C17.1647 14.1082 16.2186 13.162 16.2186 11.9989C16.2186 11.0834 16.8081 10.3103 17.6248 10.0191V8.4834H19.0309V10.0191C19.8476 10.3103 20.4371 11.0834 20.4371 11.9989H19.0309C19.0309 11.611 18.7158 11.2958 18.3278 11.2958C17.9399 11.2958 17.6248 11.611 17.6248 11.9989C17.6248 12.3868 17.9399 12.702 18.3278 12.702Z" fill="#86A876"/>
</svg>
