<svg width="80" height="80" viewBox="0 0 80 80" fill="none" xmlns="http://www.w3.org/2000/svg">
<path d="M40.9355 35.1837C43.7555 35.1843 46.1185 37.3157 46.4092 40.1206C46.6993 42.9254 44.8234 45.4961 42.0633 46.0738L41.9838 46.0904V46.1716V47.4044C41.9838 48.0739 41.441 48.6167 40.7715 48.6167C40.1021 48.6167 39.5593 48.0739 39.5593 47.4044V46.0922V46.0159L39.4858 45.9958C37.0944 45.3394 35.4355 43.167 35.4317 40.6868C35.4317 40.0174 35.9745 39.4747 36.6439 39.4747C37.3134 39.4747 37.8561 40.0175 37.8561 40.6869L37.8561 40.6871C37.8588 42.2499 39.0303 43.5638 40.5831 43.7445L40.5963 43.7461L40.6095 43.7441C40.7471 43.7235 40.8868 43.7288 41.0233 43.7583L41.0356 43.761L43.9131 40.6305L44.0131 40.6287C44.0131 40.6287 44.0131 40.6287 44.0131 40.6287C43.9826 38.9512 42.6137 37.6075 40.9356 37.6075H40.9355C38.1786 37.6081 35.847 35.5686 35.4808 32.8361C35.1145 30.1037 36.8262 27.5216 39.4857 26.7954L39.5593 26.7753V26.699V25.4245C39.5593 24.7551 40.1021 24.2123 40.7715 24.2123C41.441 24.2123 41.9838 24.7551 41.9838 25.4245V26.6189V26.7L42.0631 26.7167C44.6112 27.2542 46.4356 29.5001 46.4395 32.1042C46.4395 32.7737 45.8967 33.3165 45.2272 33.3165C44.5578 33.3165 44.015 32.7737 44.015 32.1042C44.015 30.4036 42.6362 29.0248 40.9356 29.0248C39.2349 29.0248 37.8561 30.4036 37.8561 32.1042C37.8561 33.8049 39.2349 35.1837 40.9355 35.1837ZM40.9355 35.1837L40.9356 35.0837L40.9355 35.1837Z" fill="white" stroke="white" stroke-width="0.2"/>
<path d="M40.9354 19.9922L40.9352 19.9922C31.8246 20.0026 24.4415 27.3856 24.4312 36.4963V36.4964C24.4312 45.6117 31.8201 53.0006 40.9354 53.0006C50.0506 53.0006 57.4395 45.6117 57.4395 36.4964C57.4395 27.3811 50.0506 19.9922 40.9354 19.9922ZM40.9354 55.4251C30.4812 55.4251 22.0068 46.9506 22.0067 36.4965C22.0189 26.0474 30.4864 17.5793 40.9354 17.5678C51.3895 17.5678 59.864 26.0423 59.864 36.4964C59.864 46.9506 51.3895 55.4251 40.9354 55.4251Z" fill="white" stroke="white" stroke-width="0.2"/>
<path d="M51.1887 78.4038C48.8942 79.4571 46.3992 80.0011 43.8746 79.9998L51.1887 78.4038ZM51.1887 78.4038C51.245 78.3781 51.2995 78.348 51.3514 78.3141L51.1887 78.4038ZM50.0545 76.148L50.0476 76.1511C47.1778 77.4463 43.9726 77.8037 40.888 77.1735L40.8809 77.172L40.881 77.1718L24.7818 72.6527L24.7817 72.6526C22.9946 72.1477 21.0818 72.3569 19.4471 73.2359L19.447 73.2359L18.0655 73.976L17.9136 74.0574L17.9184 73.8851L18.2881 60.4469L18.2895 60.3951L18.3326 60.3664C22.7405 57.4347 28.3936 57.1334 33.0879 59.5793L34.0532 60.0795L50.0545 76.148ZM50.0545 76.148L50.0608 76.1439L50.0545 76.148ZM48.9475 61.7362L48.9477 61.7362C51.6595 61.8145 53.9625 63.7453 54.5127 66.4023L54.5383 66.5261L54.412 66.5226L40.2767 66.1324C39.6074 66.114 39.0503 66.6419 39.0313 67.3108C39.013 67.9803 39.541 68.5379 40.2098 68.5563L55.8065 68.9855H55.8078H55.8429C56.4994 68.9849 57.0362 68.4622 57.054 67.8065L57.054 67.8064C57.0698 67.2429 57.028 66.6789 56.9286 66.1244L56.9151 66.049L56.9843 66.0163L67.5277 61.0346L67.5303 61.0333L67.5303 61.0334C67.5377 61.0301 67.5456 61.0262 67.556 61.021C67.5561 61.0209 67.5563 61.0209 67.5564 61.0208L67.6012 61.1102L48.9475 61.7362ZM48.9475 61.7362L39.4577 61.4755M48.9475 61.7362L39.4577 61.4755M39.4577 61.4755C37.5742 61.4208 35.7276 60.9441 34.0533 60.0796L39.4577 61.4755ZM66.4758 58.8504L66.4758 58.8505L66.478 58.8494C69.5924 57.2824 73.3883 58.4392 75.0997 61.4759L75.0998 61.4759C75.4153 62.0347 75.2413 62.7421 74.7026 63.0907L51.2971 78.2301L51.2967 78.2304C51.2489 78.2616 51.1989 78.2893 51.1473 78.3127L51.1469 78.3129C48.8656 79.3602 46.3848 79.9011 43.8747 79.8998H43.8746C42.6899 79.9005 41.5078 79.7789 40.348 79.5362C40.3193 79.5299 40.2944 79.5241 40.27 79.5169L40.2687 79.5166L24.1261 74.986C22.9421 74.6508 21.6748 74.7896 20.5909 75.3728L17.8878 76.8201L17.8367 76.8475L17.8351 76.9055L17.8049 77.998L17.8049 77.998C17.7872 78.6544 17.2498 79.1771 16.5927 79.1771H16.5582L6.15396 78.8907C5.48453 78.8724 4.95711 78.3148 4.97547 77.6453L5.60403 54.8107L5.60403 54.8107C5.62238 54.1412 6.17934 53.6139 6.84879 53.6322C6.84879 53.6322 6.84879 53.6322 6.8488 53.6322L17.2544 53.9186L17.2544 53.9186C17.9238 53.937 18.4512 54.4945 18.4329 55.164L18.3726 57.3515L18.3679 57.522L18.519 57.4428C23.4288 54.8707 29.2871 54.8643 34.202 57.4263L34.2022 57.4264L35.1678 57.9268L35.1679 57.9268C36.5172 58.6238 38.0062 59.0082 39.5237 59.0516L39.5239 59.0516L49.0131 59.3123C51.9734 59.3959 54.6634 61.0559 56.0657 63.6642L56.1106 63.7478L56.1965 63.7072L66.4758 58.8504ZM35.2138 57.838L34.2482 57.3376L39.5266 58.9516C38.0241 58.9087 36.5497 58.5281 35.2138 57.838ZM7.43524 76.4006L7.43249 76.5006L7.53245 76.5033L15.3142 76.718L15.4142 76.7207L15.4169 76.6208L15.9731 56.4087L15.9758 56.3087L15.8759 56.306L8.09411 56.092L7.99415 56.0892L7.9914 56.1892L7.43524 76.4006Z" fill="white" stroke="white" stroke-width="0.2"/>
<path d="M42.1478 1.31223V13.7784C42.1478 14.4479 41.605 14.9907 40.9355 14.9907C40.2661 14.9907 39.7233 14.4479 39.7233 13.7784V1.31223C39.7233 0.642785 40.2661 0.1 40.9355 0.1C41.605 0.1 42.1478 0.642785 42.1478 1.31223Z" fill="white" stroke="white" stroke-width="0.2"/>
<path d="M51.9893 7.87351V13.7785C51.9893 14.448 51.4465 14.9908 50.7771 14.9908C50.1076 14.9908 49.5648 14.448 49.5648 13.7785V7.87351C49.5648 7.20406 50.1076 6.66128 50.7771 6.66128C51.4465 6.66128 51.9893 7.20406 51.9893 7.87351Z" fill="white" stroke="white" stroke-width="0.2"/>
<path d="M32.3059 7.87351V13.7785C32.3059 14.448 31.7632 14.9908 31.0937 14.9908C30.4243 14.9908 29.8815 14.448 29.8815 13.7785V7.87351C29.8815 7.20406 30.4243 6.66128 31.0937 6.66128C31.7632 6.66128 32.3059 7.20406 32.3059 7.87351Z" fill="white" stroke="white" stroke-width="0.2"/>
</svg>
